# xmcd CD database file
#
# Track frame offsets:
#	150
#	22257
#	47995
#	72155
#	119401
#	159667
#	182640
#	219216
#
# Disc length: 3332 seconds
#
# Revision: 0
# Processed by: cddbd v1.5.2PL0 Copyright (c) Steve Scherf et al.
# Submitted via: CDex 1.70beta2
#
DISCID=710d0208
DTITLE=Jessica Williams - Offering
DYEAR=2004
DGENRE=Jazz
TTITLE0=It's Easy To Remember  (Rogers and Hart)
TTITLE1=Ernie's Theme  (Fred Lacy)
TTITLE2=Nancy With The Laughing Face
TTITLE3=Offering
TTITLE4=Serenata  (Jessica Williams)
TTITLE5=I Want To Talk About You  (Billy Eckstine)
TTITLE6=A Well of Souls
TTITLE7=Lonnie's Lament  (Coltrane)
EXTD=YEAR: 2004
EXTT0=
EXTT1=
EXTT2=
EXTT3=
EXTT4=
EXTT5=
EXTT6=
EXTT7=
PLAYORDER=
